<svg xmlns="http://www.w3.org/2000/svg" width="732" height="200" fill="none" viewBox="0 0 732 200">
  <g clip-path="url(#a)">
    <path fill="#ACE6BD" d="M90.329 77.899c-10.64-.336-19.34 8.359-19.003 18.994.299 9.647 8.157 17.483 17.808 17.801 10.64.335 19.339-8.359 19.003-18.995-.318-9.628-8.158-17.483-17.808-17.8Zm65.632 57.785a75.253 75.253 0 0 0-22.176 12.501l.355.933a75.204 75.204 0 0 0-5.302 4.777l-.205.205a7.915 7.915 0 0 1-5.656 2.332 7.915 7.915 0 0 1-5.656-2.332l-.411-.41c-14.056-13.845-32.63-21.439-52.36-21.439a76.31 76.31 0 0 0-14.504 1.399l-.355 1.027c-11.405 2.313-22.046 7.314-31.192 14.665L76.609.112h26.73l52.622 135.572ZM1.848 192.07 0 196.809h26.45l.169-.447c-6.29-2.948-13.198-4.497-20.347-4.497-1.493 0-2.968.075-4.424.205Zm31.416-13.322c7.448 3.284 14.318 7.967 20.254 13.901 2.053 2.052 4.554 3.47 7.28 4.16h7.784a15.772 15.772 0 0 0 7.28-4.142c12.619-12.613 29.4-19.554 47.246-19.554a67.218 67.218 0 0 1 21.373 3.471l-.429-1.12c10.061 3.247 19.264 8.863 26.955 16.55l.168.168a14.785 14.785 0 0 0 8.25 4.049l-.112-.299-.672-1.735a12.713 12.713 0 0 1-4.909-2.276 14.15 14.15 0 0 1-1.4-1.213l-.373-.373c-8.195-8.061-18.014-13.863-28.747-17.073l-.411-1.082a70.854 70.854 0 0 0-19.693-2.78c-18.854 0-36.569 7.333-49.897 20.655a11.975 11.975 0 0 1-8.53 3.526c-3.23 0-6.254-1.25-8.531-3.526-6.328-6.325-13.627-11.288-21.58-14.759l.337-.877c-7.504-3.284-15.568-5.243-23.93-5.784l-2.148 5.504a65.66 65.66 0 0 1 24.08 5.542l.337-.877.018-.056Zm5.712-15.132a43.302 43.302 0 0 0-3.696 2.426c.822.317 1.624.653 2.408.988l-.336.877c.15.056.299.131.448.187 7.803-5.411 17.062-8.322 26.769-8.322 9.706 0 19.04 2.948 26.88 8.397a65.441 65.441 0 0 1 4.442-1.792c-8.922-6.922-19.824-10.691-31.304-10.691-8.923 0-17.51 2.276-25.07 6.549l-.522 1.381h-.019Zm2.483-6.586c7.15-3.322 14.99-5.057 23.11-5.057 13.14 0 25.592 4.59 35.504 13.005a79.393 79.393 0 0 1 4.704-1.269c-10.958-10.206-25.144-15.803-40.19-15.803-7.336 0-14.467 1.324-21.112 3.881l-.448 1.194a58.038 58.038 0 0 0-16.632 10.187 87.31 87.31 0 0 1 2.576.709 55.068 55.068 0 0 1 12.992-8.042l-.448 1.213-.056-.018Zm-21.262 4.16c7.28-7.071 15.942-12.184 25.387-15.132l-.41 1.12a62.931 62.931 0 0 1 19.395-3.041c16.762 0 32.517 6.53 44.37 18.378 0 0 .187.168.262.243a69.768 69.768 0 0 1 5.6-.784 16.258 16.258 0 0 1-2.987-2.351c-12.619-12.613-29.4-19.554-47.245-19.554-6.03 0-11.929.802-17.585 2.332l-.41 1.083c-10.622 3.004-20.347 8.638-28.392 16.606l-.206.205s-.075.074-.112.093l-.56.56c-.13.112-.28.224-.41.336.933.13 1.866.261 2.8.429l.149-.149.373-.374h-.018Zm67.276 8.882c-6.814-4.254-14.691-6.549-22.923-6.549-8.232 0-16.016 2.257-22.792 6.474 1.418.709 2.8 1.474 4.162 2.277 5.656-3.042 12.022-4.665 18.63-4.665a39.298 39.298 0 0 1 18.76 4.758 88.48 88.48 0 0 1 4.144-2.295m-7.821 4.608a35.488 35.488 0 0 0-15.083-3.339 35.244 35.244 0 0 0-14.896 3.265 97.02 97.02 0 0 1 3.901 2.78 31.514 31.514 0 0 1 22.176.075 77.49 77.49 0 0 1 3.883-2.781m-7.336 5.561a28.128 28.128 0 0 0-7.728-1.101c-2.65 0-5.096.354-7.504 1.026a103.187 103.187 0 0 1 3.696 3.359 23.45 23.45 0 0 1 3.827-.318c1.38 0 2.725.131 4.069.355a76.924 76.924 0 0 1 3.658-3.34m61.862-20.599a15.69 15.69 0 0 1-2.93 2.314c1.885.186 3.752.448 5.6.783.074-.074.149-.13.224-.205a61.917 61.917 0 0 1 1.586-1.53l.355.952c6.403-6.046 13.869-10.58 21.971-13.397l.691 1.754c-7.729 2.687-14.878 6.978-21.001 12.669l-.933.877.168.429 1.195.28a76.69 76.69 0 0 1 4.666 1.25l.486.149.392-.336a53.751 53.751 0 0 1 17.192-9.758l.653 1.698a51.383 51.383 0 0 0-14.84 8.004l-1.344 1.045 1.587.579a87.657 87.657 0 0 1 4.405 1.772l.485.206.43-.299a43.789 43.789 0 0 1 5.544-3.284 48.172 48.172 0 0 1 5.899-2.463l.672 1.754a42.85 42.85 0 0 0-9.166 4.31l-1.419.877 1.475.746a75.744 75.744 0 0 1 4.126 2.258l.448.261.466-.261a37.321 37.321 0 0 1 6.216-2.649l.672 1.754c-1.362.447-2.706.951-4.013 1.567l-1.512.709 1.381.933a67.38 67.38 0 0 1 3.864 2.761l.411.317.485-.186a37.051 37.051 0 0 1 1.55-.523l.672 1.736-1.008.28 1.344 1.138c.112.093.224.205.336.298l1.512 3.881c-7.952-7.538-17.249-13.173-27.366-16.643-.784-.261-1.549-.523-2.352-.765a72.32 72.32 0 0 0-4.76-1.288l.392 1.045a75.257 75.257 0 0 0-17.92-2.145c-19.843 0-38.491 7.687-52.566 21.643l-.205.206a7.92 7.92 0 0 1-5.656 2.332 8 8 0 0 1-5.656-2.332l-.41-.411c-6.646-6.549-14.3-11.699-22.606-15.3l-.336.877a73.29 73.29 0 0 0-23.857-5.877l4.966-12.744c9.184-8.266 20.16-13.901 32.032-16.55l-.373 1.045a70.907 70.907 0 0 1 16.09-1.829c18.854 0 36.569 7.333 49.897 20.655a12.003 12.003 0 0 0 8.531 3.527c3.21 0 6.253-1.25 8.53-3.527a67.182 67.182 0 0 1 4.163-3.825l.355.933c6.589-5.672 14.056-10.001 22.101-12.856l.672 1.754c-8.064 2.836-15.531 7.221-22.083 12.968l.355.933a66.727 66.727 0 0 0-2.912 2.743l-.019-.019ZM30.502 186.081a58.7 58.7 0 0 1 16.053 10.728h5.47a17.866 17.866 0 0 1-1.4-1.268 62.867 62.867 0 0 0-18.817-12.968l.336-.877c-7.522-3.358-15.698-5.206-24.155-5.43l-2.184 5.598h.448c8.382 0 16.483 1.773 23.894 5.112l.336-.877.019-.018Zm49.523 10.728h2.818c10.958-10.262 25.182-15.897 40.283-15.897 8.83 0 17.36 1.922 25.107 5.579l-.467-1.25c6.216 2.799 11.966 6.699 17.006 11.568h2.688c-.205-.205-.429-.391-.635-.597l-.354-.354c-5.75-5.654-12.395-10.038-19.619-13.042l-.448-1.195c-7.299-2.91-15.176-4.44-23.278-4.44-16.763 0-32.517 6.53-44.37 18.36-.449.447-.915.877-1.4 1.268h2.669Zm-50.644-7.78c-7.168-3.265-15.008-4.982-23.109-4.982H4.965l-2.221 5.728a56.196 56.196 0 0 1 3.528-.13c7.43 0 14.597 1.604 21.13 4.627l.337-.877a51.903 51.903 0 0 1 6.16 3.377h6.421a54.224 54.224 0 0 0-11.256-6.885l.336-.877-.018.019Zm121.017 3.19c-8.213-4.72-17.546-7.239-27.272-7.239-12.507 0-24.397 4.161-34.048 11.811h6.421c8.176-5.262 17.678-8.079 27.627-8.079 9.95 0 19.451 2.817 27.627 8.079h4.891a56.882 56.882 0 0 0-4.723-3.21l-.523-1.38v.018Zm-27.272.579c6.664 0 13.142 1.381 19.059 3.993H127.83a43.591 43.591 0 0 0-4.704-.261 43.62 43.62 0 0 0-4.704.261h-14.355c5.918-2.612 12.395-3.993 19.059-3.993Zm453.23-182.443v-.13c0-4.012-2.146-6.475-5.6-6.475-3.453 0-5.674 2.426-5.674 6.475v.13c0 4.03 2.146 6.512 5.6 6.512 3.453 0 5.693-2.425 5.693-6.512m-14-.056c0-5.298 3.323-8.88 8.4-8.88s8.269 3.582 8.269 8.88c0 5.3-3.322 8.882-8.4 8.882-5.077 0-8.269-3.583-8.269-8.882Zm21.84-8.825h-2.558v17.408h2.558V1.474Zm5.75 0h-2.558v17.408h2.558V1.474Zm2.407 15.188 2.203-1.157c.747 1.082 2.016 1.623 3.304 1.623 1.363 0 2.203-.615 2.203-1.623 0-1.063-1.419-1.287-3.323-1.698-2.221-.466-4.219-1.25-4.219-3.582 0-2.146 2.016-3.77 4.592-3.77 2.296 0 4.088 1.027 5.264 2.613l-2.202 1.082c-.691-1.063-1.811-1.623-3.08-1.623-1.27 0-2.166.616-2.166 1.549 0 1.007.822 1.194 3.043 1.623 2.221.448 4.517 1.231 4.517 3.638 0 2.24-1.997 3.9-4.76 3.9-2.352 0-4.293-1.008-5.394-2.556m11.816-3.919c0-3.638 2.483-6.269 6.048-6.269 2.875 0 4.685 1.549 5.432 3.918l-2.427.747c-.41-1.549-1.288-2.538-3.042-2.538-2.128 0-3.435 1.68-3.435 4.105v.093c0 2.407 1.232 4.105 3.36 4.105 1.96 0 2.819-1.007 3.229-2.65l2.427.747c-.803 2.482-2.632 4.049-5.6 4.049-3.64 0-5.973-2.612-5.973-6.325m22.642.149v-.112c0-2.556-1.362-4.16-3.546-4.16-2.184 0-3.566 1.604-3.566 4.16v.112c0 2.5 1.344 4.049 3.51 4.049 2.165 0 3.584-1.567 3.584-4.049m-9.632-.075c0-3.713 2.538-6.325 6.122-6.325s6.104 2.612 6.104 6.325-2.557 6.27-6.141 6.27-6.067-2.557-6.067-6.27m14.691-6.12h2.557v12.184h-2.557V6.698Zm-.075-4.646h2.744V4.74h-2.744V2.052Zm8.419-.578h-2.557v17.408h2.557V1.474Zm-72.67 31.365h-5.451v-2.295h13.515v2.295h-5.469V47.69h-2.595V32.84Zm15.848 7.724c-.112-2.09-1.269-3.209-3.173-3.209-1.904 0-3.174 1.213-3.435 3.21h6.608Zm-9.091 1.12c0-3.77 2.502-6.381 5.974-6.381 3.472 0 5.73 2.407 5.73 6.25v.933h-9.165c.149 2.09 1.475 3.359 3.528 3.359s2.968-1.008 3.435-2.202l2.24.877c-.822 1.885-2.558 3.377-5.694 3.377-3.752 0-6.066-2.481-6.066-6.232m14.28-6.157h2.557v12.184h-2.557V35.507Zm-.094-4.646h2.744v2.687h-2.744V30.86Zm5.171 10.71c0-3.638 2.483-6.27 6.048-6.27 2.875 0 4.686 1.55 5.432 3.919l-2.426.746c-.411-1.548-1.288-2.537-3.043-2.537-2.128 0-3.435 1.68-3.435 4.105v.112c0 2.407 1.232 4.105 3.36 4.105 1.96 0 2.819-1.008 3.23-2.65l2.426.746c-.802 2.482-2.632 4.05-5.6 4.05-3.64 0-5.973-2.613-5.973-6.326m13.776-6.064h2.539v2.295c.653-1.623 1.885-2.556 3.752-2.556 2.632 0 4.237 1.772 4.237 5.038v7.407h-2.557v-7.277c0-1.903-.803-2.91-2.446-2.91-1.885 0-2.968 1.567-2.968 4.366v5.84h-2.538V35.526l-.019-.019Zm21.915 5.056c-.112-2.09-1.269-3.209-3.173-3.209-1.904 0-3.174 1.213-3.435 3.21h6.608Zm-9.091 1.12c0-3.77 2.502-6.381 5.974-6.381 3.472 0 5.73 2.407 5.73 6.25v.933h-9.165c.149 2.09 1.475 3.359 3.528 3.359s2.968-1.008 3.435-2.202l2.24.877c-.822 1.885-2.558 3.377-5.694 3.377-3.752 0-6.066-2.481-6.066-6.232m23.259.038v-.112c0-2.557-1.363-4.161-3.547-4.161s-3.565 1.604-3.565 4.16v.113c0 2.5 1.344 4.049 3.509 4.049 2.166 0 3.584-1.568 3.584-4.05m-9.632-.074c0-3.713 2.539-6.325 6.123-6.325s6.104 2.612 6.104 6.325-2.557 6.27-6.142 6.27c-3.584 0-6.066-2.557-6.066-6.27m17.266-11.344h-2.557V47.69h2.557V30.283Zm10.883 12.501V41.29c-.746.523-2.034.728-3.229 1.008-1.4.354-2.539.802-2.539 2.09 0 1.007.747 1.679 2.091 1.679 1.792 0 3.453-.896 3.677-3.284Zm-8.325 1.716c0-2.742 2.035-3.358 4.76-3.955 2.072-.448 3.341-.579 3.584-1.232v-.186c0-1.008-.747-1.791-2.613-1.791-1.867 0-2.782.82-2.894 2.201v.15h-2.557c.075-2.743 2.24-4.385 5.469-4.385 3.23 0 4.984 1.4 4.984 4.496v7.893h-2.426v-1.829c-.822 1.437-2.352 2.146-4.107 2.146-2.613 0-4.2-1.418-4.2-3.508Zm15.306-14.572h2.632v.224l-2.632 3.545h-1.363l1.363-3.769Zm-1.512 5.58h2.557V47.69h-2.557V35.507Zm14.747 6.194v-.112c0-2.557-1.362-4.161-3.546-4.161-2.184 0-3.566 1.604-3.566 4.16v.113c0 2.5 1.344 4.049 3.51 4.049 2.165 0 3.584-1.568 3.584-4.05m-9.651-.074c0-3.713 2.539-6.325 6.123-6.325s6.104 2.612 6.104 6.325-2.558 6.27-6.142 6.27c-3.584 0-6.066-2.557-6.066-6.27m14.018-.056c0-3.638 2.483-6.27 6.048-6.27 2.875 0 4.686 1.55 5.432 3.919l-2.426.746c-.411-1.548-1.289-2.537-3.043-2.537-2.128 0-3.435 1.68-3.435 4.105v.112c0 2.407 1.232 4.105 3.36 4.105 1.96 0 2.819-1.008 3.229-2.65l2.427.746c-.802 2.482-2.632 4.05-5.6 4.05-3.64 0-5.973-2.613-5.973-6.326m13.776-11.288h2.483v7.612c.616-1.679 1.829-2.612 3.715-2.612 2.632 0 4.237 1.735 4.237 4.982v7.407h-2.557v-7.276c0-1.904-.803-2.911-2.464-2.911-1.886 0-2.95 1.567-2.95 4.366v5.84h-2.483V30.283h.019Zm14 14.367v-6.98h-1.941v-2.164h1.941v-2.37l2.445-1.53v3.9h2.632v2.164h-2.632v6.662c0 .783.318 1.138 1.083 1.138h1.437v2.22h-2.165c-2.221-.112-2.781-1.12-2.819-3.041m15.177-1.865V41.29c-.747.523-2.035.728-3.23 1.008-1.4.354-2.538.802-2.538 2.09 0 1.007.746 1.679 2.09 1.679 1.792 0 3.454-.896 3.678-3.284Zm-8.345 1.716c0-2.742 2.035-3.358 4.761-3.955 2.072-.448 3.341-.579 3.584-1.232v-.186c0-1.008-.747-1.791-2.614-1.791-1.866 0-2.781.82-2.893 2.201v.15h-2.558c.075-2.743 2.241-4.385 5.47-4.385 3.229 0 4.984 1.4 4.984 4.496v7.893h-2.427v-1.829c-.821 1.437-2.352 2.146-4.106 2.146-2.614 0-4.201-1.418-4.201-3.508ZM570.625 71.593V70.1c-.746.522-2.034.728-3.229 1.007-1.4.355-2.539.803-2.539 2.09 0 1.008.747 1.68 2.091 1.68 1.792 0 3.453-.896 3.677-3.284Zm-8.344 1.716c0-2.743 2.035-3.358 4.76-3.956 2.072-.447 3.342-.578 3.584-1.25v-.186c0-1.008-.746-1.791-2.613-1.791s-2.781.82-2.893 2.201v.15h-2.558c.075-2.743 2.24-4.385 5.47-4.385 3.229 0 4.984 1.4 4.984 4.496v7.893h-2.427v-1.828c-.821 1.436-2.352 2.145-4.107 2.145-2.613 0-4.2-1.418-4.2-3.508m13.795-8.974h2.539v2.295c.653-1.624 1.885-2.557 3.752-2.557 2.632 0 4.237 1.773 4.237 5.038V76.5h-2.557v-7.277c0-1.903-.803-2.91-2.445-2.91-1.886 0-2.968 1.566-2.968 4.365v5.84h-2.539V64.334l-.019-.018ZM604.3 69.26l-2.539-7.071-2.613 7.071h5.152Zm-3.976-9.908h3.024L609.62 76.5h-2.744l-1.773-4.982h-6.72l-1.867 4.982h-2.651l6.459-17.148Zm11.331 14.106V66.48h-1.941v-2.164h1.941v-2.37l2.446-1.53v3.9h2.632v2.164h-2.632v6.661c0 .784.317 1.138 1.082 1.138h1.438v2.22h-2.166c-2.221-.111-2.781-1.119-2.818-3.04m10.192-14.349h-2.558v17.408h2.558V59.11Zm10.901 12.483V70.1c-.747.522-2.035.728-3.23 1.007-1.4.355-2.538.803-2.538 2.09 0 1.008.746 1.68 2.09 1.68 1.792 0 3.454-.896 3.678-3.284Zm-8.344 1.716c0-2.743 2.034-3.358 4.76-3.956 2.072-.447 3.341-.578 3.584-1.25v-.186c0-1.008-.747-1.791-2.614-1.791-1.866 0-2.781.82-2.893 2.201v.15h-2.557c.074-2.743 2.24-4.385 5.469-4.385 3.23 0 4.984 1.4 4.984 4.496v7.893h-2.427v-1.828c-.821 1.436-2.352 2.145-4.106 2.145-2.614 0-4.2-1.418-4.2-3.508m13.795-8.974h2.538v2.295c.654-1.624 1.886-2.557 3.752-2.557 2.632 0 4.238 1.773 4.238 5.038V76.5h-2.558v-7.277c0-1.903-.802-2.91-2.445-2.91-1.885 0-2.968 1.566-2.968 4.365v5.84h-2.539V64.334l-.018-.018Zm14.075 9.142V66.48h-1.942v-2.164h1.942v-2.37l2.445-1.53v3.9h2.632v2.164h-2.632v6.661c0 .784.317 1.138 1.083 1.138h1.437v2.22h-2.165c-2.222-.111-2.782-1.119-2.819-3.04m15.175-1.866V70.1c-.746.522-2.034.728-3.229 1.007-1.4.355-2.539.803-2.539 2.09 0 1.008.747 1.68 2.091 1.68 1.792 0 3.453-.896 3.677-3.284Zm-8.344 1.716c0-2.743 2.035-3.358 4.76-3.956 2.072-.447 3.342-.578 3.584-1.25v-.186c0-1.008-.746-1.791-2.613-1.791s-2.781.82-2.893 2.201v.15h-2.558c.075-2.743 2.24-4.385 5.47-4.385 3.229 0 4.984 1.4 4.984 4.496v7.893h-2.427v-1.828c-.821 1.436-2.352 2.145-4.107 2.145-2.613 0-4.2-1.418-4.2-3.508m13.796-8.974h2.557V76.5h-2.557V64.316Zm-.075-4.646h2.744v2.687h-2.744V59.67Zm14.728 10.542v-.206c0-2.332-1.288-3.806-3.434-3.806-2.147 0-3.454 1.493-3.454 3.9v.205c0 2.37 1.27 3.788 3.454 3.788s3.434-1.549 3.434-3.9m-8.904 6.512h2.539c0 1.884.803 2.668 2.949 2.668 2.464 0 3.416-.933 3.416-3.303v-1.828c-.858 1.287-2.277 2.015-4.032 2.015-3.304 0-5.506-2.37-5.506-6.008 0-3.713 2.202-6.176 5.506-6.176 1.699 0 3.08.728 3.92 1.94v-1.679h2.558v11.177c0 4.105-1.811 5.97-5.787 5.97-3.752 0-5.563-1.548-5.563-4.757m14.504-17.614h2.483v7.613c.616-1.68 1.829-2.612 3.715-2.612 2.632 0 4.237 1.735 4.237 4.981V76.5h-2.557v-7.277c0-1.922-.803-2.91-2.464-2.91-1.886 0-2.95 1.566-2.95 4.365v5.84h-2.482V59.11h.018Zm-120.68 67.768-2.539-7.072-2.613 7.072h5.152Zm-3.976-9.889h3.024l6.272 17.147h-2.744l-1.774-4.982h-6.72l-1.866 4.982h-2.651l6.459-17.147Zm11.311 14.087v-6.979h-1.941v-2.164h1.941v-2.37l2.446-1.53v3.9h2.632v2.164h-2.632v6.662c0 .783.317 1.138 1.082 1.138h1.438v2.22h-2.166c-2.221-.112-2.781-1.119-2.818-3.041m10.192-14.349h-2.557v17.409h2.557v-17.409Zm10.901 12.501v-1.492c-.747.522-2.035.727-3.229 1.007-1.4.355-2.539.803-2.539 2.09 0 1.008.747 1.679 2.091 1.679 1.792 0 3.453-.895 3.677-3.284Zm-8.344 1.698c0-2.742 2.035-3.358 4.76-3.955 2.072-.448 3.341-.579 3.584-1.232v-.186c0-1.008-.747-1.791-2.613-1.791-1.867 0-2.782.821-2.894 2.201v.15h-2.557c.075-2.743 2.24-4.385 5.469-4.385 3.23 0 4.984 1.399 4.984 4.496v7.893h-2.426v-1.829c-.822 1.437-2.352 2.146-4.107 2.146-2.613 0-4.2-1.418-4.2-3.508Zm13.795-8.993h2.539v2.295c.653-1.623 1.885-2.556 3.752-2.556 2.632 0 4.237 1.772 4.237 5.038v7.407h-2.557v-7.277c0-1.903-.803-2.911-2.446-2.911-1.885 0-2.968 1.568-2.968 4.367v5.84h-2.538v-12.184l-.019-.019Zm14.075 9.143v-6.979h-1.941v-2.164h1.941v-2.37l2.445-1.53v3.9h2.632v2.164h-2.632v6.662c0 .783.318 1.138 1.083 1.138h1.437v2.22h-2.165c-2.221-.112-2.781-1.119-2.819-3.041m7.653-9.143h2.558v12.184h-2.558v-12.184Zm-.093-4.646h2.744v2.687h-2.744v-2.687Zm5.171 10.729c0-3.639 2.483-6.27 6.048-6.27 2.875 0 4.685 1.549 5.432 3.919l-2.427.746c-.41-1.549-1.288-2.537-3.042-2.537-2.128 0-3.435 1.679-3.435 4.104v.112c0 2.407 1.232 4.105 3.36 4.105 1.96 0 2.819-1.007 3.229-2.649l2.427.746c-.803 2.482-2.632 4.049-5.6 4.049-3.64 0-5.973-2.612-5.973-6.325m-65.54 20.076h-5.451v-2.295h13.515v2.295h-5.469v14.852h-2.595v-14.852Zm15.848 7.725c-.112-2.09-1.269-3.21-3.173-3.21-1.904 0-3.174 1.213-3.435 3.21h6.608Zm-9.091 1.101c0-3.769 2.502-6.382 5.974-6.382 3.472 0 5.73 2.407 5.73 6.251v.933h-9.165c.149 2.09 1.475 3.358 3.528 3.358s2.968-1.007 3.435-2.201l2.24.877c-.822 1.884-2.558 3.377-5.694 3.377-3.752 0-6.066-2.482-6.066-6.232m13.627-.075c0-3.638 2.482-6.269 6.048-6.269 2.874 0 4.685 1.549 5.432 3.918l-2.427.747c-.411-1.549-1.288-2.538-3.043-2.538-2.128 0-3.434 1.679-3.434 4.105v.112c0 2.407 1.232 4.105 3.36 4.105 1.96 0 2.818-1.008 3.229-2.65l2.427.747c-.803 2.481-2.632 4.049-5.6 4.049-3.64 0-5.974-2.613-5.974-6.326m13.777-11.288h2.482v7.613c.616-1.68 1.83-2.613 3.715-2.613 2.632 0 4.237 1.736 4.237 4.982v7.408h-2.557v-7.277c0-1.922-.803-2.911-2.464-2.911-1.885 0-2.949 1.567-2.949 4.366v5.84h-2.483v-17.408h.019Zm13.439 5.224h2.539v2.295c.653-1.623 1.885-2.556 3.752-2.556 2.632 0 4.237 1.773 4.237 5.038v7.407h-2.557v-7.277c0-1.903-.803-2.91-2.446-2.91-1.885 0-2.968 1.567-2.968 4.366v5.84h-2.538v-12.184l-.019-.019Zm22.475 6.195v-.112c0-2.556-1.363-4.161-3.547-4.161s-3.565 1.605-3.565 4.161v.112c0 2.5 1.344 4.049 3.509 4.049 2.166 0 3.584-1.567 3.584-4.049m-9.65-.075c0-3.713 2.538-6.325 6.122-6.325s6.104 2.612 6.104 6.325-2.557 6.27-6.141 6.27-6.067-2.557-6.067-6.27m17.268-11.344h-2.558v17.408h2.558v-17.408Zm12.17 11.419v-.112c0-2.556-1.362-4.161-3.546-4.161-2.184 0-3.566 1.605-3.566 4.161v.112c0 2.5 1.344 4.049 3.51 4.049 2.165 0 3.584-1.567 3.584-4.049m-9.651-.075c0-3.713 2.539-6.325 6.123-6.325s6.104 2.612 6.104 6.325-2.558 6.27-6.142 6.27c-3.584 0-6.067-2.557-6.067-6.27m23.576-.242v-.206c0-2.332-1.288-3.806-3.434-3.806-2.147 0-3.454 1.493-3.454 3.9v.205c0 2.37 1.27 3.788 3.454 3.788s3.434-1.549 3.434-3.9m-8.922 6.53h2.538c0 1.885.803 2.669 2.95 2.669 2.464 0 3.416-.933 3.416-3.303v-1.828c-.859 1.287-2.278 2.015-4.032 2.015-3.304 0-5.507-2.37-5.507-6.027 0-3.713 2.203-6.176 5.507-6.176 1.698 0 3.08.728 3.92 1.94v-1.679h2.557v11.177c0 4.105-1.811 5.97-5.787 5.97-3.752 0-5.562-1.548-5.562-4.758Zm14.523-12.389h2.557v12.184h-2.557V150.76Zm-.075-4.646h2.744v2.687h-2.744v-2.687Zm5.171 10.71c0-3.638 2.483-6.269 6.048-6.269 2.875 0 4.685 1.549 5.432 3.918l-2.427.747c-.41-1.549-1.288-2.538-3.042-2.538-2.128 0-3.435 1.679-3.435 4.105v.112c0 2.407 1.232 4.105 3.36 4.105 1.96 0 2.819-1.008 3.229-2.65l2.427.747c-.803 2.481-2.632 4.049-5.6 4.049-3.64 0-5.973-2.613-5.973-6.326m21.522 1.213v-1.492c-.746.522-2.035.727-3.229 1.007-1.4.355-2.539.802-2.539 2.09 0 1.007.747 1.679 2.091 1.679 1.792 0 3.453-.896 3.677-3.284Zm-8.344 1.698c0-2.743 2.035-3.358 4.76-3.955 2.072-.448 3.342-.579 3.584-1.251v-.186c0-1.008-.747-1.791-2.613-1.791-1.867 0-2.782.821-2.894 2.201v.15h-2.557c.075-2.743 2.24-4.385 5.469-4.385 3.23 0 4.985 1.399 4.985 4.497v7.892h-2.427v-1.828c-.822 1.436-2.352 2.145-4.107 2.145-2.613 0-4.2-1.418-4.2-3.508m16.352-14.18h-2.557v17.408h2.557v-17.408Zm-148.681 39.481v-10.411h2.576v10.355c0 3.247 1.363 4.796 4.312 4.796 2.95 0 4.238-1.493 4.238-4.777v-10.374h2.557v10.374c0 4.777-2.557 7.072-6.776 7.072-4.555 0-6.926-2.463-6.926-7.053m16.8-5.43h2.539v2.295c.653-1.623 1.885-2.556 3.752-2.556 2.632 0 4.237 1.772 4.237 5.038v7.407h-2.557v-7.277c0-1.903-.803-2.91-2.445-2.91-1.886 0-2.968 1.567-2.968 4.366v5.84h-2.539v-12.184l-.019-.019Zm13.497 0h2.557v12.184h-2.557v-12.184Zm-.075-4.646h2.744v2.687h-2.744v-2.687Zm4.555 4.646h2.632l3.229 9.161 3.08-9.161h2.651l-4.536 12.203h-2.352l-4.704-12.203Zm21.262 5.056c-.112-2.089-1.27-3.209-3.174-3.209s-3.173 1.213-3.434 3.209h6.608Zm-9.091 1.12c0-3.769 2.501-6.381 5.973-6.381s5.731 2.407 5.731 6.25v.933h-9.165c.149 2.09 1.474 3.359 3.528 3.359 2.053 0 2.968-1.008 3.434-2.202l2.24.877c-.821 1.885-2.557 3.377-5.693 3.377-3.752 0-6.067-2.481-6.067-6.232m14.279-6.157h2.539v2.239c.355-1.418 1.326-2.351 3.547-2.351h.392v2.482h-1.157c-2.166 0-2.763 1.082-2.763 3.563v6.251h-2.539v-12.184h-.019Zm7.711 9.964 2.202-1.157c.747 1.082 2.016 1.623 3.304 1.623 1.363 0 2.203-.616 2.203-1.623 0-1.064-1.419-1.288-3.323-1.698-2.221-.467-4.218-1.25-4.218-3.583 0-2.145 2.016-3.769 4.592-3.769 2.296 0 4.088 1.027 5.264 2.613l-2.203 1.082c-.691-1.064-1.811-1.623-3.08-1.623-1.269 0-2.165.615-2.165 1.548 0 1.008.821 1.194 3.042 1.623 2.222.448 4.518 1.232 4.518 3.639 0 2.239-1.998 3.899-4.76 3.899-2.352 0-4.294-1.007-5.395-2.556m12.525-9.982h2.557v12.184h-2.557v-12.184Zm-.075-4.646h2.744v2.687h-2.744v-2.687Zm6.814 13.789v-6.979h-1.942v-2.164h1.942v-2.37l2.445-1.53v3.9h2.632v2.164h-2.632v6.661c0 .784.317 1.139 1.083 1.139h1.437v2.22h-2.165c-2.222-.112-2.782-1.119-2.819-3.041m6.982 5.653h1.157c1.68 0 2.072-.354 3.024-2.836l-4.704-11.96h2.651l3.248 9.087 2.968-9.087h2.688l-4.686 13.061c-1.101 2.892-2.165 4.03-5.096 4.03h-1.288v-2.295h.038ZM220.268 18.659h-65.8V0h152.937v18.659h-65.801v178.076h-21.336V18.658Zm108.791 104.002V0h21.336v121.784c0 40.88 16.595 59.856 55.72 59.856 39.126 0 53.947-18.379 53.947-58.961V0H481.1v122.661c0 52.449-25.798 77.339-75.283 77.339-49.486 0-76.777-25.786-76.777-77.339"/>
  </g>
  <defs>
    <clipPath id="a">
      <path fill="#fff" d="M0 0h732v200H0z"/>
    </clipPath>
  </defs>
</svg>
